<?xml version="1.0" encoding="UTF-8"?>
<svg width="88px" height="88px" viewBox="0 0 88 88" version="1.1" xmlns="http://www.w3.org/2000/svg" xmlns:xlink="http://www.w3.org/1999/xlink">
    <title>Logos / MYDRAP-Officiel</title>
    <g id="Desktop" stroke="none" stroke-width="1" fill="none" fill-rule="evenodd">
        <g id="VD-16927_MyDrap_Web_Accueil" transform="translate(-50.000000, -57.000000)">
            <g id="Logos-/-MYDRAP-Officiel" transform="translate(50.000000, 57.000000)">
                <polygon id="BG" fill="#141414" points="0 88 88 88 88 0 0 0"></polygon>
                <path d="M18.4055758,46.8246595 C23.3486533,46.8246595 27.0803681,50.3786319 27.0803681,55.1724233 C27.0803681,59.9416984 23.3486533,63.5206248 18.4055758,63.5206248 L18.4055758,63.5206248 L12.2752142,63.5206248 L12.2752142,46.8246595 Z M36.3563325,46.825141 C39.9908582,46.825141 42.1482832,48.9475429 42.1482832,52.2629203 C42.1482832,54.9824665 40.7184638,56.6517566 38.3430198,57.2484633 L38.3430198,57.2484633 L43.0930322,63.5206686 L38.8285279,63.5206686 L34.4423183,57.5098234 L32.5283041,57.5098234 L32.5283041,63.5206686 L29.062765,63.5206686 L29.062765,46.825141 Z M54.672468,46.8249659 L61.0199731,63.5204935 L57.3364151,63.5204935 L55.9079091,59.5847689 L49.0503796,59.5847689 L47.5973573,63.5204935 L43.9374399,63.5204935 L50.2862584,46.8249659 L54.672468,46.8249659 Z M69.6910442,46.8248784 C73.3251321,46.8248784 75.7246545,48.9236396 75.7246545,52.4303308 C75.7246545,55.9361465 73.3251321,58.1312213 69.6910442,58.1312213 L69.6910442,58.1312213 L66.032878,58.1312213 L66.032878,63.5208437 L62.5673389,63.5208437 L62.5673389,46.8248784 Z M18.4055758,50.069115 L15.7403154,50.069115 L15.7403154,60.2770449 L18.4055758,60.2770449 C21.4587175,60.2770449 23.6148291,58.1787215 23.6148291,55.1724233 C23.6148291,52.1678762 21.4587175,50.069115 18.4055758,50.069115 L18.4055758,50.069115 Z M52.4664484,50.2835003 L50.2367882,56.3420646 L54.6956709,56.3420646 L52.4664484,50.2835003 Z M69.5452604,50.0688961 L66.032878,50.0688961 L66.032878,54.8872036 L69.5452604,54.8872036 C71.3388826,54.8872036 72.2113964,53.933261 72.2113964,52.4784876 C72.2113964,50.9978847 71.3388826,50.0688961 69.5452604,50.0688961 L69.5452604,50.0688961 Z M35.9693269,50.068721 L32.5283041,50.068721 L32.5283041,54.528917 L35.9693269,54.528917 C37.7861519,54.528917 38.6337118,53.6699746 38.6337118,52.3106393 C38.6337118,50.9263499 37.7620735,50.068721 35.9693269,50.068721 L35.9693269,50.068721 Z M16.2430287,24.4794189 L20.5898373,30.8750808 L24.9138809,24.4794189 L28.8999512,24.4794189 L28.8999512,41.1228496 L25.4457947,41.1228496 L25.4457947,29.1869658 L20.7356211,36.2012238 L20.4221641,36.2012238 L15.7360689,29.1869658 L15.7360689,41.1228496 L12.2819123,41.1228496 L12.2819123,24.4794189 L16.2430287,24.4794189 Z M34.3064723,24.4795065 L38.1226805,31.8264843 L41.9388886,24.4795065 L45.8277698,24.4795065 L39.8620168,35.6304343 L39.8620168,41.1229372 L36.3837819,41.1229372 L36.4078603,35.6540749 L30.4171534,24.4795065 L34.3064723,24.4795065 Z" id="MYDRAP" fill="#FFFFFF"></path>
            </g>
        </g>
    </g>
</svg>